<svg width="16" height="27" viewBox="0 0 16 27" fill="none" xmlns="http://www.w3.org/2000/svg">
<path d="M1.26202 26.3702L4.84616 8.52879L1.87495 9.71632V13.8581H0V8.48798L5.92786 5.96876C6.21952 5.84376 6.51079 5.76884 6.80165 5.744C7.09251 5.71916 7.37176 5.7468 7.63939 5.82693C7.90701 5.90706 8.15501 6.03085 8.38337 6.19832C8.61173 6.36579 8.80524 6.58333 8.96389 6.85096L10.0216 8.53844C10.6434 9.54966 11.4258 10.3626 12.3689 10.9772C13.312 11.5917 14.3693 11.9231 15.5408 11.9712V13.8461C14.1145 13.782 12.8425 13.4198 11.7247 12.7596C10.6069 12.0993 9.64579 11.2283 8.8413 10.1466L7.87975 14.9279L10.5408 17.5962V26.3702H8.66586V18.6418L5.60814 16.0288L3.21389 26.3702H1.26202ZM8.97834 4.61536C8.33892 4.61536 7.79445 4.3906 7.34493 3.94108C6.89542 3.49157 6.67066 2.9471 6.67066 2.30768C6.67066 1.66826 6.89542 1.12379 7.34493 0.674274C7.79445 0.224758 8.33892 0 8.97834 0C9.61776 0 10.1622 0.224758 10.6117 0.674274C11.0613 1.12379 11.286 1.66826 11.286 2.30768C11.286 2.9471 11.0613 3.49157 10.6117 3.94108C10.1622 4.3906 9.61776 4.61536 8.97834 4.61536Z" fill="#065F46" fill-opacity="0.5"/>
</svg>
