<svg width="27" height="27" viewBox="0 0 27 27" fill="none" xmlns="http://www.w3.org/2000/svg">
<path d="M12.5 3.36536V0H14.375V3.36536H12.5ZM12.5 26.875V23.5096H14.375V26.875H12.5ZM23.5096 14.375V12.5H26.875V14.375H23.5096ZM0 14.375V12.5H3.36536V14.375H0ZM21.5721 6.62016L20.2548 5.30288L22.25 3.26924L23.6057 4.62498L21.5721 6.62016ZM4.62498 23.6057L3.26924 22.25L5.30288 20.2548L6.62016 21.5721L4.62498 23.6057ZM22.25 23.6057L20.2548 21.5721L21.5721 20.2548L23.6057 22.25L22.25 23.6057ZM5.30288 6.62016L3.26924 4.62498L4.62498 3.26924L6.62016 5.30288L5.30288 6.62016ZM13.4375 20.3124C11.5304 20.3124 9.90785 19.6434 8.56972 18.3052C7.23159 16.9671 6.56252 15.3445 6.56252 13.4375C6.56252 11.5304 7.23159 9.90785 8.56972 8.56972C9.90785 7.23159 11.5304 6.56252 13.4375 6.56252C15.3445 6.56252 16.9671 7.23159 18.3052 8.56972C19.6434 9.90785 20.3124 11.5304 20.3124 13.4375C20.3124 15.3445 19.6434 16.9671 18.3052 18.3052C16.9671 19.6434 15.3445 20.3124 13.4375 20.3124ZM13.4375 18.4375C14.8333 18.4375 16.0156 17.9531 16.9844 16.9844C17.9531 16.0156 18.4375 14.8333 18.4375 13.4375C18.4375 12.0416 17.9531 10.8594 16.9844 9.8906C16.0156 8.92185 14.8333 8.43748 13.4375 8.43748C12.0416 8.43748 10.8594 8.92185 9.8906 9.8906C8.92185 10.8594 8.43748 12.0416 8.43748 13.4375C8.43748 14.8333 8.92185 16.0156 9.8906 16.9844C10.8594 17.9531 12.0416 18.4375 13.4375 18.4375Z" fill="#065F46" fill-opacity="0.5"/>
</svg>
