<svg width="29" height="29" viewBox="0 0 29 29" fill="none" xmlns="http://www.w3.org/2000/svg">
<path d="M12.0384 16.8557C11.3077 16.1249 10.6462 15.3509 10.0541 14.5336C9.4619 13.7163 8.93265 12.8493 8.4663 11.9326C8.26598 12.3284 8.12414 12.7375 8.04081 13.1598C7.95747 13.5821 7.9158 14.0112 7.9158 14.4471C7.9158 16.2631 8.55033 17.8057 9.81939 19.0748C11.0884 20.3438 12.631 20.9783 14.4471 20.9783C14.875 20.9783 15.3041 20.9315 15.7344 20.8377C16.1647 20.744 16.5737 20.6073 16.9616 20.4278C16.0449 19.9615 15.1779 19.4322 14.3606 18.8401C13.5433 18.2479 12.7692 17.5865 12.0384 16.8557ZM13.3749 15.5505C14.3974 16.5729 15.5368 17.4583 16.7932 18.2067C18.0496 18.9551 19.3918 19.5456 20.8196 19.9783C20.0264 20.8966 19.0777 21.6105 17.9735 22.1201C16.8693 22.6297 15.7043 22.8846 14.4783 22.8846C12.1279 22.8846 10.134 22.0659 8.49676 20.4286C6.85948 18.7914 6.04085 16.7975 6.04085 14.4471C6.04085 13.2211 6.29565 12.0561 6.80526 10.9519C7.31487 9.84775 8.0288 8.89904 8.94706 8.10577C9.37976 9.53365 9.9703 10.8758 10.7187 12.1322C11.4671 13.3886 12.3525 14.528 13.3749 15.5505ZM22.3293 17.5601C22.0158 17.4795 21.7063 17.3908 21.4007 17.2941C21.0951 17.1974 20.7924 17.0897 20.4928 16.9711C20.6674 16.5721 20.7973 16.1618 20.8822 15.7404C20.9671 15.3189 21.0096 14.8892 21.0096 14.4514C21.0096 12.6346 20.3693 11.0859 19.0888 9.80537C17.8082 8.52482 16.2595 7.88455 14.4427 7.88455C14.0049 7.88455 13.5753 7.92502 13.1538 8.00595C12.7323 8.08688 12.3221 8.21468 11.923 8.38936C11.8044 8.08969 11.7016 7.79313 11.6146 7.49967C11.5276 7.20622 11.4445 6.90504 11.3653 6.59614C11.8573 6.40062 12.3637 6.25399 12.8846 6.15623C13.4054 6.05848 13.9367 6.0096 14.4783 6.0096C16.8288 6.0096 18.8226 6.82823 20.4599 8.46551C22.0972 10.1028 22.9158 12.0966 22.9158 14.4471C22.9158 14.9887 22.8669 15.52 22.7692 16.0408C22.6714 16.5617 22.5248 17.0681 22.3293 17.5601ZM13.5096 3.36536V0H15.3846V3.36536H13.5096ZM13.5096 28.8941V25.5288H15.3846V28.8941H13.5096ZM22.9543 7.27639L21.6178 5.93989L23.9735 3.60337L25.31 4.92065L22.9543 7.27639ZM4.92065 25.2908L3.58414 23.9735L5.93989 21.6178L7.27639 22.9543L4.92065 25.2908ZM25.5288 15.3846V13.5096H28.8941V15.3846H25.5288ZM0 15.3846V13.5096H3.36536V15.3846H0ZM23.9735 25.31L21.6178 22.9543L22.9543 21.6178L25.2908 23.9735L23.9735 25.31ZM5.93989 7.27639L3.60337 4.92065L4.92065 3.58414L7.27639 5.93989L5.93989 7.27639Z" fill="#065F46" fill-opacity="0.5"/>
</svg>
